<svg width="147" height="47" viewBox="0 0 147 47" fill="none" xmlns="http://www.w3.org/2000/svg">
<g clip-path="url(#clip0_7_73)">
<path d="M22.1125 31.4047L33.2868 38.1674L30.3215 25.4216L40.1939 16.8458L27.1934 15.7398L22.1125 3.71918L17.0316 15.7398L4.03111 16.8458L13.9036 25.4216L10.9382 38.1674L22.1125 31.4047Z" fill="#E0CB65"/>
</g>
<g clip-path="url(#clip1_7_73)">
<path d="M73.5692 33.1362L84.7435 39.8989L81.7782 27.153L91.6506 18.5772L78.6501 17.4713L73.5692 5.45062L68.4884 17.4713L55.4878 18.5772L65.3603 27.153L62.3949 39.8989L73.5692 33.1362Z" fill="#E0CB65"/>
</g>
<g clip-path="url(#clip2_7_73)">
<path d="M125.081 34.805L136.255 41.5678L133.29 28.8219L143.162 20.2461L130.162 19.1401L125.081 7.11951L120 19.1401L106.999 20.2461L116.872 28.8219L113.906 41.5678L125.081 34.805Z" fill="#E0CB65"/>
</g>
<defs>
<clipPath id="clip0_7_73">
<rect width="43.3954" height="43.5136" fill="white" transform="translate(0.414825 0.0930176)"/>
</clipPath>
<clipPath id="clip1_7_73">
<rect width="43.3954" height="43.5136" fill="white" transform="translate(51.8715 1.82446)"/>
</clipPath>
<clipPath id="clip2_7_73">
<rect width="43.3954" height="43.5136" fill="white" transform="translate(103.383 3.49335)"/>
</clipPath>
</defs>
</svg>
